<?xml version="1.0" encoding="iso-8859-1"?>
<!-- Generator: Adobe Illustrator 19.2.0, SVG Export Plug-In . SVG Version: 6.00 Build 0)  -->
<svg version="1.1" id="&#x56FE;&#x5C42;_1" xmlns="http://www.w3.org/2000/svg" xmlns:xlink="http://www.w3.org/1999/xlink" x="0px"
	 y="0px" viewBox="0 0 125.941 112.96" style="enable-background:new 0 0 125.941 112.96;" xml:space="preserve">
<g>
	<path style="fill:#D1D1D1;" d="M91.224,112.96c-9.835,0-40.246-1.423-57.5-0.889c-17.289,0.535-23.996,0.521-28.147,0.354
		c-2.794-0.113-4.646-0.583-4.653-2.042c-0.005-1.066,0.881-2.31,2.874-2.339c11.237-0.164,63.183-1.382,70.927-1.719
		c25.751-1.12,39.186,0.121,39.186,2.477C113.91,111.939,104.224,112.96,91.224,112.96z"/>
	<g>
		<path style="fill:#FF7102;" d="M120.921,32.584c-1.188-3.396,4.471-3.601,3.763-6.018c-0.696-2.375-3.805-2.326-5.805-0.368
			c-1-1.837-1.86-3.958-3.901-3.547c-2.099,0.422-3.79,1.714-2.994,5.125c-0.563,0.339-1.522,1.416,0.053,2.829
			c0.801,0.718,1.317,0.467,2.031,0.718c1.603,0.564,2.581,2.87,3.786,4.71c5.825,8.891,6.797,26.396,1.741,33.197
			c-6.638,8.928-14.028,8.911-20.109,9.8c-4.808,0.703-18.577,0.809-32.14-0.998c-8.698-1.159-22.182-2.998-29.175-4.5
			c-6.057-1.301-18.417-4.918-22.047-11.031c-2.018-3.397-2.084-14.015,2.12-23.364c4.929-10.96,11.447-16.674,14.614-18.841
			c3.167-2.167,4.275-1.414,5.467-2.2c1.116-0.736,0.889-1.426,0.179-2.564c2.018-2.104,2.589-3.595,0.69-5.853
			c-1.164-1.384-4.544,0.851-5.796,1.848c-1.528-3.425-3.954-3.465-5.273-2.739c-1.319,0.725,2.328,5.769,0.139,7.595
			C18.799,24.28,11.99,32.881,7.884,40.67c-3.616,6.859-5.42,11.586-6.795,17.836c-1.856,8.438-1.418,12.276,1.921,16.428
			c1.736,2.158,3.515,3.198,4.273,3.976c-2.653,7.301-4.695,21.395-4.437,25.724c0.486-0.151,0.983-0.302,1.481-0.452
			c-0.363,1.083-0.744,2.153-1.081,2.971c-0.689,0.382-1.195,1.002-1.403,2.128c-0.427,2.306,1.168,2.321,4.125,2.321
			c2.726,0,7.733-0.23,7.505-2.321c-0.248-2.275-1.368-3.752-4.716-3.366c0.496-0.859,1.241-2.112,2.146-3.58
			c19.013-4.984,43.756-8.658,62.188-8.283c4.413,0.09,15.282,1.044,23.463,1.782c1.117,1.973,2.4,5.005,3.59,9.64
			c-0.252,0.712-0.354,1.564-0.268,2.614c0.262,3.17,2.718,2.325,6.844,0.793c3.803-1.413,7.89-3.261,6.591-5.784
			c-1.615-3.137-3.518-3.125-7.437-1.668c-0.28,0.104-0.552,0.206-0.821,0.308c-0.182-1.457-0.412-3.337-0.753-5.207
			c0.695,0.06,1.258,0.107,1.656,0.136c0.164-1.212-0.541-4.666-0.603-6.384c1.516-0.078,4.24-0.405,7.922-2.5
			c5.763-3.279,11.663-11.778,12.489-23.85C126.742,49.656,123.473,38.787,120.921,32.584z"/>
		<path style="fill:#FF7102;" d="M54.925,8.174c7.174-2.316,15.16-2.528,22.845-1.414c11.401,1.652,21.607,8.133,24.851,11.21
			c2.174,2.062,0.285-2.483,0.774-2.954c1.151-1.109,4.665,1.812,6.729,1.016c1.297-0.5-5.266-6.467-10.078-9.125
			c-9.959-5.5-20-7.75-30.625-6.625c-13.563,1.436-25.875,8.13-25.077,9.2C45.15,10.564,46.465,10.904,54.925,8.174z"/>
		
			<ellipse transform="matrix(0.3902 -0.9207 0.9207 0.3902 23.9744 108.2599)" style="fill:#FF7102;" cx="93.718" cy="36.03" rx="4.25" ry="3.5"/>
		
			<ellipse transform="matrix(0.3902 -0.9207 0.9207 0.3902 8.7507 78.3848)" style="fill:#FF7102;" cx="63.552" cy="32.586" rx="4.742" ry="3.588"/>
		<path style="fill:#FF7102;" d="M57.125,64.931c1.525,6.906,8.297,7.818,13.438,5.424c5.272-2.455,11.161-5.946,13.024-11.219
			c1.999-5.657-4.481-8.91-11.371-9.173C59.69,49.485,55.028,55.431,57.125,64.931z"/>
	</g>
</g>
</svg>
