<svg xmlns="http://www.w3.org/2000/svg" viewBox="0 0 125.941 112.96"><path d="M91.224 112.96c-9.835 0-40.246-1.423-57.5-.889-17.289.535-23.996.521-28.147.354-2.794-.113-4.646-.583-4.653-2.042-.005-1.066.881-2.31 2.874-2.339 11.237-.164 63.183-1.382 70.927-1.719 25.751-1.12 39.186.121 39.186 2.477-.001 3.137-9.687 4.158-22.687 4.158z" fill="#d1d1d1"/><g fill="#ff7102"><path d="M120.921 32.584c-1.188-3.396 4.471-3.601 3.763-6.018-.696-2.375-3.805-2.326-5.805-.368-1-1.837-1.86-3.958-3.901-3.547-2.099.422-3.79 1.714-2.994 5.125-.563.339-1.522 1.416.053 2.829.801.718 1.317.467 2.031.718 1.603.564 2.581 2.87 3.786 4.71 5.825 8.891 6.797 26.396 1.741 33.197-6.638 8.928-14.028 8.911-20.109 9.8-4.808.703-18.577.809-32.14-.998-8.698-1.159-22.182-2.998-29.175-4.5-6.057-1.301-18.417-4.918-22.047-11.031-2.018-3.397-2.084-14.015 2.12-23.364 4.929-10.96 11.447-16.674 14.614-18.841 3.167-2.167 4.275-1.414 5.467-2.2 1.116-.736.889-1.426.179-2.564 2.018-2.104 2.589-3.595.69-5.853-1.164-1.384-4.544.851-5.796 1.848-1.528-3.425-3.954-3.465-5.273-2.739-1.319.725 2.328 5.769.139 7.595C18.799 24.28 11.99 32.881 7.884 40.67c-3.616 6.859-5.42 11.586-6.795 17.836C-.767 66.944-.329 70.782 3.01 74.934c1.736 2.158 3.515 3.198 4.273 3.976-2.653 7.301-4.695 21.395-4.437 25.724.486-.151.983-.302 1.481-.452a50.172 50.172 0 0 1-1.081 2.971c-.689.382-1.195 1.002-1.403 2.128-.427 2.306 1.168 2.321 4.125 2.321 2.726 0 7.733-.23 7.505-2.321-.248-2.275-1.368-3.752-4.716-3.366.496-.859 1.241-2.112 2.146-3.58 19.013-4.984 43.756-8.658 62.188-8.283 4.413.09 15.282 1.044 23.463 1.782 1.117 1.973 2.4 5.005 3.59 9.64-.252.712-.354 1.564-.268 2.614.262 3.17 2.718 2.325 6.844.793 3.803-1.413 7.89-3.261 6.591-5.784-1.615-3.137-3.518-3.125-7.437-1.668-.28.104-.552.206-.821.308-.182-1.457-.412-3.337-.753-5.207.695.06 1.258.107 1.656.136.164-1.212-.541-4.666-.603-6.384 1.516-.078 4.24-.405 7.922-2.5 5.763-3.279 11.663-11.778 12.489-23.85.978-14.276-2.291-25.145-4.843-31.348z"/><path d="M54.925 8.174c7.174-2.316 15.16-2.528 22.845-1.414 11.401 1.652 21.607 8.133 24.851 11.21 2.174 2.062.285-2.483.774-2.954 1.151-1.109 4.665 1.812 6.729 1.016 1.297-.5-5.266-6.467-10.078-9.125-9.959-5.5-20-7.75-30.625-6.625-13.563 1.436-25.875 8.13-25.077 9.2.806 1.082 2.121 1.422 10.581-1.308z"/><ellipse transform="rotate(-67.032 93.721 36.031)" cx="93.718" cy="36.03" rx="4.25" ry="3.5"/><ellipse transform="rotate(-67.032 63.554 32.587)" cx="63.552" cy="32.586" rx="4.742" ry="3.588"/><path d="M57.125 64.931c1.525 6.906 8.297 7.818 13.438 5.424 5.272-2.455 11.161-5.946 13.024-11.219 1.999-5.657-4.481-8.91-11.371-9.173-12.526-.478-17.188 5.468-15.091 14.968z"/></g></svg>